# Blender v2.92.0 OBJ File: ''
# www.blender.org
mtllib SM_Road_01.mtl
o Road_Cross001
v -273.973083 -0.452889 -179.004517
v -273.973083 -6.800089 -179.004395
v -252.801498 -6.800087 -191.442078
v -252.801498 -0.452887 -191.442200
v -274.175293 0.000411 -179.408630
v -253.050507 0.000413 -191.819519
v -256.443420 -0.037786 -196.943115
v -276.933807 -0.037788 -184.900024
v -233.097412 -6.800085 -206.214783
v -233.097687 -0.452885 -206.214783
v -233.391388 0.000415 -206.559326
v -237.370789 -0.037784 -211.241272
v -296.121094 -0.452891 -169.328979
v -296.137878 -6.800091 -169.321716
v -296.273193 0.000409 -169.755493
v -298.351593 -0.037790 -175.537903
v -219.456299 -6.800083 -219.447998
v -219.456512 -0.452883 -219.447998
v -219.775391 0.000417 -219.766907
v -224.111603 -0.037782 -224.102417
v -191.451202 -6.800077 -252.792114
v -179.013397 -6.800074 -273.963806
v -179.013397 -0.452874 -273.963806
v -191.451202 -0.452877 -252.792114
v -179.417206 0.000426 -274.166687
v -191.827911 0.000423 -253.041870
v -196.951691 -0.037777 -256.434387
v -184.908203 -0.037773 -276.924622
v -206.223907 -6.800081 -233.089172
v -206.224091 -0.452881 -233.089294
v -206.568604 0.000419 -233.382202
v -211.250000 -0.037780 -237.362427
v -169.311310 -6.800070 -296.170288
v -169.313202 -0.456370 -296.173096
v -169.739014 -0.003070 -296.325623
v -175.523193 -0.041070 -298.400818
v -160.601807 -6.799939 -484.896606
v -160.601807 -6.800037 -499.998108
v -160.601807 -0.447037 -499.997986
v -206.924988 0.000160 -484.925293
v -167.200195 -0.060437 -499.997925
v -207.110809 0.000163 -499.998230
v -206.686798 -0.006440 -484.923889
v -161.053986 -0.002037 -499.997925
v -161.053986 -6.317639 -484.895203
v -167.198700 -6.356339 -484.887573
v -161.054413 -6.319565 -327.005676
v -160.601807 -6.799965 -327.005676
v -164.376709 -6.799968 -311.060730
v -164.805695 -6.317668 -311.195496
v -206.863800 0.000132 -313.149414
v -170.647705 -6.356368 -313.055298
v -167.198700 -6.357765 -327.005676
v -327.014221 -6.800092 -160.593018
v -327.014221 -0.452892 -160.592529
v -499.999786 -0.452992 -160.593811
v -499.999786 -6.800092 -160.593811
v -327.014221 0.000408 -161.045105
v -499.999786 0.000308 -161.046387
v -311.071777 -0.452992 -164.366821
v -311.071777 -6.800092 -164.366821
v -311.186005 0.000308 -164.796997
v -312.740479 -0.037891 -170.638977
v -308.740997 0.000116 -209.018982
v -320.422394 0.000115 -205.039673
v -327.014221 -0.037791 -167.190002
v -291.349915 0.000117 -216.620728
v -274.713379 0.000118 -226.398926
v -259.227112 0.000120 -238.008301
v -248.460205 0.000122 -248.451599
v -209.027100 0.000132 -308.731628
v -238.016815 0.000124 -259.218811
v -226.408203 0.000126 -274.704529
v -216.629211 0.000129 -291.341187
v -499.999786 0.000163 -499.997986
v -331.989685 0.000114 -202.243225
v -499.999786 -0.056991 -167.191528
v -499.999786 0.000115 -207.102478
v -179.012695 -6.800174 -273.963806
v -252.800293 -6.800188 -191.442078
v 252.793213 -6.800188 -191.442078
v 179.005920 -6.800174 -273.963806
v -327.014221 -6.800192 -160.592712
v 327.007324 -6.800192 -160.592773
v -499.999786 -6.800192 -160.593811
v -499.999786 -6.800245 160.602295
v -327.014221 -6.800245 160.601196
v 273.966614 -0.452889 -179.004517
v 252.794373 -0.452887 -191.442322
v 252.794373 -6.800188 -191.442078
v 273.966614 -6.800189 -179.004517
v 274.168884 0.000411 -179.408630
v 253.044373 0.000413 -191.819519
v 256.437317 -0.037786 -196.943115
v 276.927185 -0.037788 -184.900085
v 233.091309 -0.452885 -206.214722
v 233.091614 -6.800185 -206.214783
v 233.384827 0.000415 -206.559326
v 237.364319 -0.037784 -211.241211
v 296.114685 -0.452891 -169.328918
v 296.131775 -6.800191 -169.321716
v 296.265930 0.000409 -169.755493
v 298.344482 -0.037790 -175.537903
v 219.449707 -0.452883 -219.447998
v 219.449707 -6.800183 -219.447998
v 219.768982 0.000417 -219.766907
v 224.104980 -0.037782 -224.102173
v 191.445129 -6.800178 -252.792114
v 191.445129 -0.452877 -252.792114
v 179.007080 -0.452874 -273.963806
v 179.007080 -6.800174 -273.963806
v 191.821777 0.000423 -253.041870
v 179.410583 0.000426 -274.166809
v 196.945312 -0.037777 -256.434387
v 184.901917 -0.037773 -276.924622
v 206.217773 -6.800181 -233.089294
v 206.217773 -0.452881 -233.089172
v 206.561523 0.000419 -233.382202
v 211.243896 -0.037780 -237.362427
v 169.306580 -0.456370 -296.173218
v 169.304871 -6.800170 -296.170288
v 169.732422 -0.003070 -296.325623
v 175.517090 -0.041070 -298.400818
v 160.595215 -6.799939 -484.896484
v 160.595215 -0.447037 -499.997925
v 160.595215 -6.800137 -499.997986
v 206.918213 0.000160 -484.925293
v 207.103516 0.000163 -499.998291
v 167.193115 -0.060437 -499.997925
v 206.680176 -0.006440 -484.924011
v 161.047913 -0.002037 -499.997925
v 161.047607 -6.317639 -484.895386
v 167.192078 -6.356339 -484.887573
v 160.595215 -6.799965 -327.005676
v 161.047913 -6.319565 -327.005676
v 164.370422 -6.799968 -311.060730
v 164.798828 -6.317668 -311.195618
v 206.857178 0.000132 -313.149292
v 170.641113 -6.356368 -313.055298
v 167.192078 -6.357765 -327.005920
v 327.007812 -6.800192 -160.593018
v 500.000000 -6.800192 -160.593872
v 500.000000 -0.452992 -160.593872
v 327.007812 -0.452892 -160.592529
v 500.000000 0.000308 -161.046509
v 327.007812 0.000408 -161.045105
v 311.065186 -6.800192 -164.366821
v 311.065186 -0.452992 -164.366577
v 311.179382 0.000308 -164.796997
v 312.733582 -0.037891 -170.638977
v 308.734375 0.000116 -209.018982
v 320.416016 0.000115 -205.039673
v 327.007812 -0.037791 -167.190002
v 291.343506 0.000117 -216.620483
v 274.706482 0.000118 -226.398682
v 259.220886 0.000120 -238.008301
v 248.453430 0.000122 -248.451599
v 209.020813 0.000132 -308.731628
v 238.010681 0.000124 -259.218811
v 226.401917 0.000126 -274.704529
v 216.622986 0.000129 -291.341125
v 500.000000 0.000163 -499.997986
v 331.983398 0.000114 -202.243225
v 500.000000 -0.056991 -167.191528
v 500.000000 0.000115 -207.102478
v 500.000000 -6.800192 -160.593872
v 327.007629 -6.800245 160.601196
v 500.000000 -6.800245 160.602295
v -499.999786 -6.800245 160.602509
v -499.999786 -0.453045 160.602509
v 500.000000 -0.453045 160.602509
v 500.000000 -6.800245 160.602509
v -499.999786 0.000255 161.054810
v 500.000000 0.000255 161.054810
v -499.999786 -0.057046 167.199799
v 500.000183 -0.057046 167.199799
v 500.000000 0.000048 207.110809
v -499.999786 0.000048 207.110809
v -499.999786 0.000000 499.999908
v 500.000000 0.000000 499.999908
v -160.601807 -6.800165 -327.005676
v 160.594971 -6.800165 -327.005676
v -160.601807 -6.800137 -499.998108
v 160.595215 -6.800137 -499.997986
vt 0.704400 0.402900
vt 0.580600 0.410300
vt 0.580700 0.404000
vt 0.705100 0.526600
vt 0.634100 0.529100
vt 0.629200 0.527900
vt 0.624300 0.526300
vt 0.617000 0.523200
vt 0.610000 0.519100
vt 0.603400 0.514300
vt 0.598900 0.510000
vt 0.594500 0.505600
vt 0.589600 0.499100
vt 0.585500 0.492100
vt 0.582200 0.484800
vt 0.581100 0.318800
vt 0.582100 0.316800
vt 0.705000 0.397700
vt 0.581100 0.391400
vt 0.634000 0.271900
vt 0.704900 0.274000
vt 0.629100 0.273100
vt 0.624200 0.274800
vt 0.616800 0.278000
vt 0.609800 0.282100
vt 0.603300 0.287000
vt 0.598700 0.291400
vt 0.594300 0.295900
vt 0.589400 0.302500
vt 0.585300 0.309500
vt 0.581200 0.482900
vt 0.581200 0.397800
vt 0.609700 0.539200
vt 0.608600 0.541500
vt 0.599400 0.536300
vt 0.600800 0.534100
vt 0.609900 0.539000
vt 0.600900 0.533800
vt 0.602400 0.531700
vt 0.611000 0.536600
vt 0.590800 0.530000
vt 0.592500 0.527900
vt 0.592700 0.527700
vt 0.594300 0.525700
vt 0.619100 0.543200
vt 0.618200 0.545600
vt 0.619200 0.542900
vt 0.620000 0.540500
vt 0.584800 0.524400
vt 0.586700 0.522500
vt 0.586900 0.522300
vt 0.588700 0.520400
vt 0.572700 0.510100
vt 0.567200 0.500900
vt 0.569600 0.499800
vt 0.574900 0.508600
vt 0.569800 0.499600
vt 0.575100 0.508400
vt 0.577300 0.507000
vt 0.572200 0.498400
vt 0.579100 0.518500
vt 0.581100 0.516800
vt 0.581300 0.516600
vt 0.583300 0.514900
vt 0.563300 0.491000
vt 0.565800 0.490400
vt 0.565900 0.490400
vt 0.568100 0.489500
vt 0.560800 0.410600
vt 0.558600 0.404600
vt 0.561100 0.403700
vt 0.563900 0.403700
vt 0.580500 0.410300
vt 0.561300 0.403600
vt 0.561100 0.410500
vt 0.563600 0.410500
vt 0.561500 0.477300
vt 0.561300 0.477300
vt 0.562700 0.484100
vt 0.563000 0.483900
vt 0.565600 0.483000
vt 0.564100 0.477200
vt 0.631800 0.549200
vt 0.632000 0.546600
vt 0.705100 0.546400
vt 0.705000 0.549000
vt 0.632100 0.546400
vt 0.705200 0.546100
vt 0.625400 0.545200
vt 0.624700 0.547700
vt 0.625400 0.544900
vt 0.626100 0.542500
vt 0.632100 0.543800
vt 0.705200 0.543500
vt 0.712700 0.184000
vt 0.681600 0.149200
vt 0.895100 0.149200
vt 0.863900 0.184000
vt 0.650200 0.136200
vt 0.926400 0.136100
vt 0.577200 0.136200
vt 0.577200 0.000500
vt 0.650200 0.000500
vt 0.609500 0.262100
vt 0.600500 0.267300
vt 0.599100 0.265100
vt 0.608300 0.259700
vt 0.609600 0.262300
vt 0.600700 0.267500
vt 0.602100 0.269700
vt 0.610700 0.264600
vt 0.592200 0.273500
vt 0.590500 0.271500
vt 0.592400 0.273700
vt 0.594000 0.275700
vt 0.618800 0.258000
vt 0.617800 0.255500
vt 0.618900 0.258200
vt 0.619800 0.260600
vt 0.586400 0.279100
vt 0.584500 0.277200
vt 0.586600 0.279300
vt 0.588500 0.281100
vt 0.572500 0.291700
vt 0.574600 0.293100
vt 0.569400 0.302000
vt 0.567100 0.300900
vt 0.574900 0.293300
vt 0.569700 0.302200
vt 0.577000 0.294700
vt 0.571900 0.303400
vt 0.578900 0.283200
vt 0.580900 0.284900
vt 0.581100 0.285000
vt 0.583000 0.286700
vt 0.565600 0.311400
vt 0.563200 0.310800
vt 0.565700 0.311400
vt 0.568000 0.312400
vt 0.561200 0.391200
vt 0.561600 0.398100
vt 0.559100 0.397200
vt 0.564400 0.397900
vt 0.581000 0.391300
vt 0.561800 0.398200
vt 0.561500 0.391300
vt 0.564100 0.391200
vt 0.561200 0.324600
vt 0.561400 0.324600
vt 0.562500 0.317800
vt 0.562900 0.317900
vt 0.565500 0.318800
vt 0.564100 0.324600
vt 0.631400 0.251700
vt 0.704700 0.251600
vt 0.704800 0.254300
vt 0.631800 0.254300
vt 0.704900 0.254500
vt 0.631800 0.254600
vt 0.624400 0.253300
vt 0.625100 0.255800
vt 0.625100 0.256100
vt 0.625800 0.258600
vt 0.631800 0.257100
vt 0.704900 0.257100
vt 0.999500 0.136100
vt 0.926400 0.000500
vt 0.999500 0.000500
vt 0.000500 0.433000
vt 0.003100 0.433000
vt 0.003100 0.855300
vt 0.000500 0.855300
vt 0.003400 0.433000
vt 0.003400 0.855300
vt 0.006000 0.433000
vt 0.006000 0.855300
vt 0.022900 0.855300
vt 0.022900 0.433000
vt 0.146600 0.433000
vt 0.146600 0.855300
vt 0.720500 0.206400
vt 0.856200 0.206400
vt 0.720500 0.279500
vt 0.856200 0.279500
vn 0.0000 1.0000 0.0000
vn 0.4542 0.0000 0.8909
vn 0.5541 0.0000 0.8325
vn 0.3218 0.7060 0.6309
vn 0.3216 0.7060 0.6310
vn 0.3923 0.7062 0.5895
vn 0.3924 0.7062 0.5894
vn -0.0015 1.0000 -0.0022
vn -0.0012 1.0000 -0.0024
vn -0.0028 1.0000 -0.0055
vn -0.0034 1.0000 -0.0052
vn 0.6494 0.0000 0.7605
vn 0.4595 0.7067 0.5381
vn 0.4596 0.7064 0.5382
vn -0.0018 1.0000 -0.0021
vn -0.0040 1.0000 -0.0047
vn 0.3581 0.0001 0.9337
vn 0.3579 0.0001 0.9338
vn 0.2537 0.7065 0.6606
vn 0.2530 0.7066 0.6608
vn -0.0010 1.0000 -0.0025
vn -0.0022 1.0000 -0.0058
vn 0.7071 0.0000 0.7071
vn 0.5013 0.7053 0.5013
vn -0.0044 1.0000 -0.0044
vn -0.0018 1.0000 -0.0018
vn 0.8325 0.0000 0.5541
vn 0.8909 0.0000 0.4542
vn 0.5895 0.7061 0.3923
vn 0.6310 0.7060 0.3215
vn 0.6309 0.7060 0.3217
vn 0.5895 0.7061 0.3924
vn -0.0022 1.0000 -0.0015
vn -0.0052 1.0000 -0.0034
vn -0.0055 1.0000 -0.0029
vn -0.0024 1.0000 -0.0013
vn 0.7605 0.0000 0.6494
vn 0.5384 0.7062 0.4597
vn 0.5384 0.7062 0.4598
vn -0.0021 1.0000 -0.0018
vn -0.0047 1.0000 -0.0040
vn 0.9338 0.0004 0.3579
vn 0.9315 0.0004 0.3638
vn 0.6495 0.7055 0.2836
vn -0.0056 1.0000 -0.0026
vn -0.0023 1.0000 -0.0011
vn 1.0000 0.0000 0.0000
vn 0.0825 0.9966 0.0080
vn 0.0017 1.0000 0.0004
vn 0.0015 1.0000 -0.0000
vn 0.0274 0.9973 0.0683
vn 0.6725 0.6822 0.2869
vn 0.7019 0.6572 0.2748
vn 0.7008 0.6581 0.2753
vn 0.6719 0.6827 0.2872
vn 0.0601 0.9212 0.3844
vn 0.0693 0.9209 0.3837
vn -0.0061 0.9229 0.3849
vn -0.0088 0.9225 0.3858
vn 0.1465 0.9131 0.3805
vn 0.7295 0.6840 0.0000
vn 0.7249 0.6831 0.0893
vn 0.7255 0.6835 0.0807
vn -0.0071 -0.0366 0.9993
vn 0.7342 0.6745 0.0776
vn 0.7369 0.6731 0.0619
vn 0.1632 0.9246 -0.3442
vn 0.1398 0.9262 -0.3503
vn 0.1327 0.9255 -0.3547
vn 0.1208 0.9275 -0.3538
vn 0.1119 0.9260 -0.3605
vn 0.7357 0.6759 -0.0430
vn 0.7354 0.6763 -0.0432
vn 0.9492 0.0004 0.3146
vn 0.0880 0.9959 0.0217
vn -0.0061 1.0000 -0.0016
vn -0.0062 1.0000 -0.0007
vn 0.0723 0.9974 0.0063
vn 0.1160 -0.0001 0.9933
vn -0.0000 -0.0000 1.0000
vn -0.0000 0.7065 0.7077
vn 0.0783 0.7044 0.7055
vn 0.0870 0.7039 0.7049
vn 0.2729 -0.0000 0.9620
vn 0.1953 0.7006 0.6864
vn 0.1948 0.7006 0.6864
vn -0.0008 1.0000 -0.0026
vn -0.0017 1.0000 -0.0061
vn 0.0004 1.0000 0.0010
vn 0.0003 1.0000 0.0010
vn -0.0004 1.0000 -0.0029
vn -0.0007 1.0000 -0.0062
vn 0.0005 1.0000 0.0010
vn 0.0006 1.0000 0.0009
vn 0.0007 1.0000 0.0008
vn 0.0008 1.0000 0.0008
vn 0.0811 0.9967 0.0048
vn 0.0011 1.0000 0.0005
vn 0.0008 1.0000 0.0007
vn 0.0009 1.0000 0.0006
vn 0.0010 1.0000 0.0005
vn 0.0001 1.0000 0.0011
vn -0.0001 1.0000 -0.0040
vn -0.0000 1.0000 0.0014
vn 0.0761 0.9971 -0.0000
vn -0.0063 1.0000 0.0000
vn -0.0001 1.0000 -0.0093
vn -0.4542 0.0000 0.8909
vn -0.5541 0.0000 0.8325
vn -0.3218 0.7060 0.6309
vn -0.3922 0.7065 0.5891
vn -0.3921 0.7065 0.5892
vn -0.3216 0.7060 0.6310
vn 0.0015 1.0000 -0.0022
vn 0.0034 1.0000 -0.0052
vn 0.0028 1.0000 -0.0055
vn 0.0012 1.0000 -0.0024
vn -0.6494 -0.0000 0.7605
vn -0.4595 0.7066 0.5381
vn 0.0018 1.0000 -0.0021
vn 0.0040 1.0000 -0.0047
vn -0.3581 0.0001 0.9337
vn -0.3579 0.0001 0.9338
vn -0.2538 0.7064 0.6608
vn -0.2531 0.7065 0.6610
vn 0.0022 1.0000 -0.0058
vn 0.0010 1.0000 -0.0025
vn -0.7071 -0.0000 0.7071
vn -0.5011 0.7055 0.5011
vn 0.0018 1.0000 -0.0018
vn 0.0044 1.0000 -0.0044
vn -0.8325 0.0000 0.5541
vn -0.8909 0.0000 0.4542
vn -0.5895 0.7060 0.3924
vn -0.6311 0.7058 0.3218
vn -0.6312 0.7058 0.3216
vn 0.0022 1.0000 -0.0015
vn 0.0024 1.0000 -0.0013
vn 0.0055 1.0000 -0.0029
vn 0.0052 1.0000 -0.0034
vn -0.7605 -0.0000 0.6494
vn -0.5387 0.7059 0.4600
vn -0.5387 0.7058 0.4600
vn 0.0021 1.0000 -0.0018
vn 0.0047 1.0000 -0.0040
vn -0.9315 0.0004 0.3638
vn -0.9338 0.0004 0.3579
vn -0.6495 0.7055 0.2836
vn 0.0023 1.0000 -0.0011
vn 0.0056 1.0000 -0.0026
vn -1.0000 0.0000 0.0000
vn -0.0826 0.9965 0.0080
vn -0.0015 1.0000 -0.0000
vn -0.0017 1.0000 0.0004
vn -0.0276 0.9973 0.0685
vn -0.6723 0.6823 0.2870
vn -0.6714 0.6831 0.2874
vn -0.7007 0.6582 0.2753
vn -0.7016 0.6574 0.2749
vn -0.0601 0.9212 0.3844
vn 0.0088 0.9225 0.3858
vn 0.0061 0.9229 0.3849
vn -0.0693 0.9209 0.3837
vn -0.1465 0.9131 0.3805
vn -0.7294 0.6841 0.0000
vn -0.7254 0.6836 0.0807
vn -0.7248 0.6831 0.0893
vn 0.0061 -0.0343 0.9994
vn -0.7346 0.6741 0.0777
vn -0.7373 0.6727 0.0621
vn -0.1632 0.9246 -0.3442
vn -0.1327 0.9255 -0.3547
vn -0.1398 0.9262 -0.3503
vn -0.1119 0.9260 -0.3605
vn -0.1208 0.9275 -0.3538
vn -0.7357 0.6760 -0.0430
vn -0.7353 0.6763 -0.0432
vn -0.9492 0.0004 0.3146
vn -0.0880 0.9959 0.0217
vn -0.0723 0.9974 0.0063
vn 0.0062 1.0000 -0.0007
vn 0.0061 1.0000 -0.0016
vn -0.1160 -0.0001 0.9933
vn 0.0000 0.7066 0.7076
vn -0.0870 0.7039 0.7049
vn -0.0783 0.7044 0.7055
vn -0.2729 -0.0000 0.9620
vn -0.1948 0.7008 0.6863
vn -0.1953 0.7007 0.6862
vn 0.0017 1.0000 -0.0061
vn 0.0008 1.0000 -0.0026
vn -0.0004 1.0000 0.0010
vn -0.0003 1.0000 0.0010
vn 0.0007 1.0000 -0.0062
vn 0.0004 1.0000 -0.0029
vn -0.0005 1.0000 0.0010
vn -0.0006 1.0000 0.0009
vn -0.0007 1.0000 0.0008
vn -0.0008 1.0000 0.0008
vn -0.0011 1.0000 0.0005
vn -0.0811 0.9967 0.0048
vn -0.0008 1.0000 0.0007
vn -0.0009 1.0000 0.0006
vn -0.0010 1.0000 0.0005
vn -0.0001 1.0000 0.0011
vn 0.0001 1.0000 -0.0040
vn -0.0826 0.9966 0.0080
vn -0.0761 0.9971 -0.0000
vn 0.0063 1.0000 0.0000
vn 0.0001 1.0000 -0.0093
vn 0.0000 0.0000 -1.0000
vn 0.0000 0.7063 -0.7079
vn 0.0000 1.0000 0.0093
vn -0.0000 1.0000 0.0039
vn 0.0000 1.0000 -0.0007
usemtl Default_OBJ.004
s off
f 75/1/1 40/2/1 42/3/1
f 75/1/1 78/4/1 76/5/1
f 75/1/1 76/5/1 65/6/1
f 75/1/1 65/6/1 64/7/1
f 75/1/1 64/7/1 67/8/1
f 75/1/1 67/8/1 68/9/1
f 75/1/1 68/9/1 69/10/1
f 75/1/1 69/10/1 70/11/1
f 75/1/1 70/11/1 72/12/1
f 75/1/1 72/12/1 73/13/1
f 75/1/1 73/13/1 74/14/1
f 75/1/1 74/14/1 71/15/1
f 138/16/1 158/17/1 162/18/1
f 162/18/1 127/19/1 138/16/1
f 162/18/1 163/20/1 165/21/1
f 162/18/1 152/22/1 163/20/1
f 162/18/1 151/23/1 152/22/1
f 162/18/1 154/24/1 151/23/1
f 162/18/1 155/25/1 154/24/1
f 162/18/1 156/26/1 155/25/1
f 162/18/1 157/27/1 156/26/1
f 162/18/1 159/28/1 157/27/1
f 162/18/1 160/29/1 159/28/1
f 162/18/1 161/30/1 160/29/1
f 162/18/1 158/17/1 161/30/1
f 75/1/1 71/15/1 51/31/1
f 51/31/1 40/2/1 75/1/1
f 162/18/1 128/32/1 127/19/1
s 1
f 1/33/2 2/34/2 3/35/3
f 3/35/3 4/36/3 1/33/2
f 5/37/4 1/33/5 4/36/6
f 4/36/6 6/38/7 5/37/4
f 7/39/8 8/40/9 5/37/10
f 5/37/10 6/38/11 7/39/8
f 4/36/3 3/35/3 9/41/12
f 9/41/12 10/42/12 4/36/3
f 6/38/7 4/36/6 10/42/13
f 10/42/13 11/43/14 6/38/7
f 12/44/15 7/39/8 6/38/11
f 6/38/11 11/43/16 12/44/15
f 13/45/17 14/46/18 2/34/2
f 2/34/2 1/33/2 13/45/17
f 15/47/19 13/45/20 1/33/5
f 1/33/5 5/37/4 15/47/19
f 8/40/9 16/48/21 15/47/22
f 15/47/22 5/37/10 8/40/9
f 9/41/12 17/49/23 18/50/23
f 18/50/23 10/42/12 9/41/12
f 10/42/13 18/50/24 19/51/24
f 19/51/24 11/43/14 10/42/13
f 11/43/16 19/51/25 20/52/26
f 20/52/26 12/44/15 11/43/16
f 21/53/27 22/54/28 23/55/28
f 23/55/28 24/56/27 21/53/27
f 24/56/29 23/55/30 25/57/31
f 25/57/31 26/58/32 24/56/29
f 27/59/33 26/58/34 25/57/35
f 25/57/35 28/60/36 27/59/33
f 29/61/37 21/53/27 24/56/27
f 24/56/27 30/62/37 29/61/37
f 30/62/38 24/56/29 26/58/32
f 26/58/32 31/63/39 30/62/38
f 32/64/40 31/63/41 26/58/34
f 26/58/34 27/59/33 32/64/40
f 22/54/28 33/65/42 34/66/43
f 34/66/43 23/55/28 22/54/28
f 23/55/30 34/66/44 35/67/44
f 35/67/44 25/57/31 23/55/30
f 28/60/36 25/57/35 35/67/45
f 35/67/45 36/68/46 28/60/36
f 18/50/23 17/49/23 29/61/37
f 29/61/37 30/62/37 18/50/23
f 19/51/24 18/50/24 30/62/38
f 30/62/38 31/63/39 19/51/24
f 20/52/26 19/51/25 31/63/41
f 31/63/41 32/64/40 20/52/26
f 37/69/47 38/70/47 39/71/47
f 40/2/48 41/72/49 42/3/50
f 40/2/48 43/73/51 41/72/49
f 44/74/52 45/75/53 37/69/54
f 37/69/54 39/71/55 44/74/52
f 41/72/56 46/76/57 45/75/58
f 45/75/58 44/74/59 41/72/56
f 41/72/56 43/73/60 46/76/57
f 45/75/61 47/77/62 48/78/63
f 48/78/63 37/69/61 45/75/61
f 46/76/64 43/73/64 40/2/64
f 49/79/65 48/78/63 47/77/62
f 47/77/62 50/80/66 49/79/65
f 51/31/67 36/68/68 52/81/69
f 36/68/68 35/67/70 50/80/71
f 50/80/71 52/81/69 36/68/68
f 34/66/72 49/79/65 50/80/66
f 50/80/66 35/67/73 34/66/72
f 34/66/43 33/65/42 49/79/74
f 52/81/75 50/80/76 47/77/77
f 47/77/77 53/82/78 52/81/75
f 54/83/79 55/84/79 56/85/80
f 56/85/80 57/86/80 54/83/79
f 56/85/81 55/84/82 58/87/83
f 58/87/83 59/88/81 56/85/81
f 13/45/17 60/89/84 61/90/84
f 61/90/84 14/46/18 13/45/17
f 15/47/19 62/91/85 60/89/86
f 60/89/86 13/45/20 15/47/19
f 16/48/21 63/92/87 62/91/88
f 62/91/88 15/47/22 16/48/21
f 64/7/89 65/6/90 63/92/87
f 63/92/87 16/48/21 64/7/89
f 60/89/84 55/84/79 54/83/79
f 54/83/79 61/90/84 60/89/84
f 60/89/86 62/91/85 58/87/83
f 58/87/83 55/84/82 60/89/86
f 63/92/87 66/93/91 58/87/92
f 58/87/92 62/91/88 63/92/87
f 16/48/21 8/40/9 67/8/93
f 67/8/93 64/7/89 16/48/21
f 8/40/9 7/39/8 68/9/94
f 68/9/94 67/8/93 8/40/9
f 7/39/8 12/44/15 69/10/95
f 69/10/95 68/9/94 7/39/8
f 12/44/15 20/52/26 70/11/96
f 70/11/96 69/10/95 12/44/15
f 36/68/46 51/31/97 71/15/98
f 32/64/40 72/12/99 70/11/96
f 70/11/96 20/52/26 32/64/40
f 27/59/33 73/13/100 72/12/99
f 72/12/99 32/64/40 27/59/33
f 28/60/36 74/14/101 73/13/100
f 73/13/100 27/59/33 28/60/36
f 36/68/46 71/15/98 74/14/101
f 74/14/101 28/60/36 36/68/46
f 66/93/91 63/92/87 65/6/90
f 65/6/90 76/5/102 66/93/91
f 77/94/103 66/93/91 76/5/102
f 76/5/102 78/4/104 77/94/103
f 51/31/97 53/82/78 46/76/105
f 46/76/105 40/2/48 51/31/97
f 45/75/106 46/76/105 47/77/77
f 46/76/105 53/82/78 47/77/77
f 77/94/103 59/88/107 66/93/91
f 59/88/107 58/87/92 66/93/91
f 51/31/97 52/81/75 53/82/78
f 79/95/1 80/96/1 81/97/1
f 81/97/1 82/98/1 79/95/1
f 83/99/1 84/100/1 81/97/1
f 81/97/1 80/96/1 83/99/1
f 85/101/1 86/102/1 87/103/1
f 87/103/1 83/99/1 85/101/1
f 88/104/108 89/105/109 90/106/109
f 90/106/109 91/107/108 88/104/108
f 92/108/110 93/109/111 89/105/112
f 89/105/112 88/104/113 92/108/110
f 94/110/114 93/109/115 92/108/116
f 92/108/116 95/111/117 94/110/114
f 89/105/109 96/112/118 97/113/118
f 97/113/118 90/106/109 89/105/109
f 93/109/111 98/114/119 96/112/119
f 96/112/119 89/105/112 93/109/111
f 99/115/120 98/114/121 93/109/115
f 93/109/115 94/110/114 99/115/120
f 100/116/122 88/104/108 91/107/108
f 91/107/108 101/117/123 100/116/122
f 102/118/124 92/108/110 88/104/113
f 88/104/113 100/116/125 102/118/124
f 95/111/117 92/108/116 102/118/126
f 102/118/126 103/119/127 95/111/117
f 97/113/118 96/112/118 104/120/128
f 104/120/128 105/121/128 97/113/118
f 96/112/119 98/114/119 106/122/129
f 106/122/129 104/120/129 96/112/119
f 98/114/121 99/115/120 107/123/130
f 107/123/130 106/122/131 98/114/121
f 108/124/132 109/125/132 110/126/133
f 110/126/133 111/127/133 108/124/132
f 109/125/134 112/128/134 113/129/135
f 113/129/135 110/126/136 109/125/134
f 114/130/137 115/131/138 113/129/139
f 113/129/139 112/128/140 114/130/137
f 116/132/141 117/133/141 109/125/132
f 109/125/132 108/124/132 116/132/141
f 117/133/142 118/134/143 112/128/134
f 112/128/134 109/125/134 117/133/142
f 119/135/144 114/130/137 112/128/140
f 112/128/140 118/134/145 119/135/144
f 111/127/133 110/126/133 120/136/146
f 120/136/146 121/137/147 111/127/133
f 110/126/136 113/129/135 122/138/148
f 122/138/148 120/136/148 110/126/136
f 115/131/138 123/139/149 122/138/150
f 122/138/150 113/129/139 115/131/138
f 104/120/128 117/133/141 116/132/141
f 116/132/141 105/121/128 104/120/128
f 106/122/129 118/134/143 117/133/142
f 117/133/142 104/120/129 106/122/129
f 107/123/130 119/135/144 118/134/145
f 118/134/145 106/122/131 107/123/130
f 124/140/151 125/141/151 126/142/151
f 127/19/152 128/32/153 129/143/154
f 127/19/152 129/143/154 130/144/155
f 131/145/156 125/141/157 124/140/158
f 124/140/158 132/146/159 131/145/156
f 129/143/160 131/145/161 132/146/162
f 132/146/162 133/147/163 129/143/160
f 129/143/160 133/147/163 130/144/164
f 132/146/165 124/140/165 134/148/166
f 134/148/166 135/149/167 132/146/165
f 133/147/168 127/19/168 130/144/168
f 136/150/169 137/151/170 135/149/167
f 135/149/167 134/148/166 136/150/169
f 138/16/171 139/152/172 123/139/173
f 123/139/173 139/152/172 137/151/174
f 137/151/174 122/138/175 123/139/173
f 120/136/176 122/138/177 137/151/170
f 137/151/170 136/150/169 120/136/176
f 120/136/146 136/150/178 121/137/147
f 139/152/179 140/153/180 135/149/181
f 135/149/181 137/151/182 139/152/179
f 141/154/183 142/155/80 143/156/80
f 143/156/80 144/157/183 141/154/183
f 143/156/184 145/158/184 146/159/185
f 146/159/185 144/157/186 143/156/184
f 100/116/122 101/117/123 147/160/187
f 147/160/187 148/161/187 100/116/122
f 102/118/124 100/116/125 148/161/188
f 148/161/188 149/162/189 102/118/124
f 103/119/127 102/118/126 149/162/190
f 149/162/190 150/163/191 103/119/127
f 151/23/192 103/119/127 150/163/191
f 150/163/191 152/22/193 151/23/192
f 148/161/187 147/160/187 141/154/183
f 141/154/183 144/157/183 148/161/187
f 148/161/188 144/157/186 146/159/185
f 146/159/185 149/162/189 148/161/188
f 150/163/191 149/162/190 146/159/194
f 146/159/194 153/164/195 150/163/191
f 103/119/127 151/23/192 154/24/196
f 154/24/196 95/111/117 103/119/127
f 95/111/117 154/24/196 155/25/197
f 155/25/197 94/110/114 95/111/117
f 94/110/114 155/25/197 156/26/198
f 156/26/198 99/115/120 94/110/114
f 99/115/120 156/26/198 157/27/199
f 157/27/199 107/123/130 99/115/120
f 123/139/149 158/17/200 138/16/201
f 119/135/144 107/123/130 157/27/199
f 157/27/199 159/28/202 119/135/144
f 114/130/137 119/135/144 159/28/202
f 159/28/202 160/29/203 114/130/137
f 115/131/138 114/130/137 160/29/203
f 160/29/203 161/30/204 115/131/138
f 123/139/149 115/131/138 161/30/204
f 161/30/204 158/17/200 123/139/149
f 153/164/195 163/20/205 152/22/193
f 152/22/193 150/163/191 153/164/195
f 164/165/206 165/21/104 163/20/205
f 163/20/205 153/164/195 164/165/206
f 138/16/201 127/19/207 133/147/208
f 133/147/208 140/153/180 138/16/201
f 132/146/209 135/149/181 133/147/208
f 133/147/208 135/149/181 140/153/180
f 164/165/206 153/164/195 145/158/210
f 145/158/210 153/164/195 146/159/194
f 138/16/201 140/153/180 139/152/179
f 166/166/1 84/100/1 167/167/1
f 167/167/1 168/168/1 166/166/1
f 169/169/211 170/170/211 171/171/211
f 171/171/211 172/172/211 169/169/211
f 171/171/212 170/170/212 173/173/212
f 173/173/212 174/174/212 171/171/212
f 174/174/213 173/173/213 175/175/214
f 175/175/214 176/176/214 174/174/213
f 177/177/215 178/178/215 179/179/1
f 179/179/1 180/180/1 177/177/215
f 167/167/1 84/100/1 83/99/1
f 83/99/1 87/103/1 167/167/1
f 181/181/1 79/95/1 82/98/1
f 82/98/1 182/182/1 181/181/1
f 183/183/1 181/181/1 182/182/1
f 182/182/1 184/184/1 183/183/1
f 176/176/214 175/175/214 178/178/215
f 178/178/215 177/177/215 176/176/214
