# Blender v2.92.0 OBJ File: ''
# www.blender.org
mtllib SM_Road_04.mtl
o Object001
v -450.603607 -3.409492 -160.591797
v -450.605988 2.973208 -160.591797
v -499.999908 2.956408 -160.591797
v -499.999908 -3.409492 -160.591797
v -450.601898 3.407508 -161.044922
v -499.999908 3.409708 -161.044922
v -450.608490 3.390009 -167.189514
v -499.999908 3.390009 -167.189514
v 499.999573 3.389954 167.199188
v -75.653595 3.389954 167.198212
v 207.108582 3.389900 500.001007
v 499.999878 3.389900 500.001007
v -450.603607 -3.409545 160.600586
v -499.999908 -3.409545 160.600586
v -499.999908 2.956355 160.600586
v -450.600189 2.973555 160.600586
v -100.134186 -3.352592 -160.591797
v -75.642212 -3.409492 -160.591797
v -75.638611 2.973308 -160.591797
v -75.642303 -3.409545 160.600586
v -100.130615 -3.353145 160.600586
v -75.641693 2.972755 160.600586
v -425.880615 -3.353192 -160.591797
v -425.883392 -3.353545 160.600586
v -425.971405 3.398841 248.841797
v -425.927002 3.404241 249.179703
v -425.884003 1.051154 167.198212
v -100.525513 3.401122 -249.093811
v -100.133911 3.401122 -249.093811
v -100.133911 3.409722 -249.395508
v 499.999573 -3.409392 -160.591797
v 499.999573 2.956408 -160.591797
v 499.999695 -3.409445 160.600586
v 499.999573 2.956355 160.600586
v 499.999573 3.409655 161.053711
v -75.642487 3.407055 161.052704
v -100.102295 3.389941 249.414993
v -99.880402 3.409722 -248.546875
v -99.877808 3.390022 -249.604492
v -99.881012 3.401122 -248.247986
v -425.988495 3.402122 -248.777283
v -425.864014 3.404622 -249.100586
v -100.103485 3.402841 249.176804
v -425.935486 3.390022 -249.450195
v 499.999573 3.409708 -161.044922
v -75.641205 3.407408 -161.044922
v 499.999573 3.390009 -167.189514
v -75.644012 3.350009 -167.138672
v -75.637390 3.390009 -167.305725
v 499.999207 3.390015 -207.100586
v 499.999207 3.390063 -499.997986
v -425.888092 1.089308 -161.044922
v -425.886200 1.051709 -167.189514
v -100.141113 1.050709 -167.189514
v -100.137695 1.089608 -161.044922
v -100.131897 1.089055 161.052704
v -100.139893 1.050454 167.198212
v -499.999908 3.409655 161.052704
v -450.601013 3.408055 161.052704
v -499.999908 3.389954 167.198212
v -450.600891 3.389954 167.198212
v -425.883484 3.389941 249.515594
v -499.999908 3.389900 500.001007
v -499.999908 3.390063 -499.997986
v -425.884705 1.088855 161.052704
vt 0.006000 0.427500
vt 0.005900 0.184500
vt 0.146500 0.303800
vt 0.146500 0.427500
vt 0.040600 0.174100
vt 0.006000 0.184500
vt 0.006000 0.427500
vt 0.022800 0.427500
vt 0.146500 0.427500
vt 0.040700 0.174200
vt 0.040700 0.036500
vt 0.006000 0.026000
vt 0.006000 0.005200
vt 0.146500 0.005300
vt 0.006000 0.026000
vt 0.040700 0.036500
vt 0.146500 0.005200
vt 0.006000 0.005200
vt 0.000500 0.026100
vt 0.003200 0.026000
vt 0.003200 0.005200
vt 0.000500 0.005200
vt 0.003400 0.026000
vt 0.003400 0.005200
vt 0.721300 0.969300
vt 0.857000 0.969300
vt 0.857000 0.990100
vt 0.721300 0.990100
vt 0.003200 0.005200
vt 0.003200 0.026000
vt 0.000500 0.026100
vt 0.000500 0.005200
vt 0.001400 0.174000
vt 0.000500 0.184400
vt 0.003200 0.184500
vt 0.721300 0.810900
vt 0.857000 0.810900
vt 0.857000 0.821300
vt 0.721300 0.821300
vt 0.001400 0.174000
vt 0.003200 0.184500
vt 0.000500 0.184400
vt 0.857000 0.958800
vt 0.721300 0.958800
vt 0.040400 0.036500
vt 0.040600 0.036500
vt 0.005900 0.036500
vt 0.040500 0.173900
vt 0.040500 0.174100
vt 0.040600 0.174100
vt 0.000500 0.427500
vt 0.003200 0.427500
vt 0.721300 0.567900
vt 0.857000 0.567900
vt 0.003200 0.427500
vt 0.000500 0.427500
vt 0.003400 0.427600
vt 0.003400 0.184500
vt 0.001400 0.036600
vt 0.001400 0.036600
vt 0.040300 0.174200
vt 0.040200 0.174200
vt 0.040400 0.036500
vt 0.040500 0.036500
vt 0.040500 0.174100
vt 0.003400 0.427600
vt 0.003400 0.184500
vt 0.005900 0.184500
vt 0.003300 0.036500
vt 0.005900 0.036500
vt 0.005900 0.174100
vt 0.003300 0.174100
vt 0.003300 0.174100
vt 0.005900 0.174100
vt 0.003400 0.005200
vt 0.003400 0.026000
vt 0.003300 0.036500
vn -0.0000 1.0000 0.0000
vn -0.0000 0.0000 1.0000
vn 0.0553 0.4164 0.9075
vn 0.0000 0.3826 0.9239
vn 0.0698 0.9211 0.3831
vn 0.0000 0.9245 0.3813
vn 0.0605 0.9981 0.0060
vn 0.0000 1.0000 -0.0032
vn -0.0011 1.0000 0.0000
vn 0.0000 0.3821 -0.9241
vn 0.0196 0.4014 -0.9157
vn -0.0000 0.0000 -1.0000
vn -0.0110 0.0933 0.9956
vn -0.0198 0.4021 0.9154
vn 0.0012 1.0000 0.0000
vn -0.0054 0.0980 -0.9952
vn -0.0561 0.4160 -0.9076
vn 0.0944 0.9951 -0.0283
vn 0.1273 0.9916 0.0224
vn 0.0470 0.9988 -0.0113
vn -0.0000 0.9996 0.0285
vn -0.0476 0.9985 0.0285
vn 0.0149 0.9993 -0.0341
vn 0.0000 0.3823 0.9240
vn 0.0000 0.3826 -0.9239
vn 0.0000 0.9245 -0.3813
vn -0.0702 0.9209 -0.3835
vn -0.0000 1.0000 0.0032
vn -0.0611 0.9981 -0.0062
vn 0.0053 0.0982 0.9952
vn 0.0109 0.0931 -0.9956
vn -0.0163 0.9999 0.0050
vn 0.0389 0.9982 -0.0461
vn -0.0950 0.9951 0.0285
vn 0.0907 -0.9955 0.0272
vn 0.1507 0.9876 0.0448
vn 0.0283 0.9995 -0.0155
vn 0.0605 0.9982 0.0060
vn -0.0312 0.9994 -0.0132
vn -0.0219 0.9991 -0.0372
vn -0.0434 0.9300 0.3649
vn -0.0001 1.0000 -0.0032
vn -0.0474 0.9926 0.1119
vn -0.0592 0.9832 0.1724
vn 0.0347 0.7341 0.6782
vn 0.0471 0.9988 0.0113
vn 0.0583 0.9979 0.0287
vn -0.0473 0.9988 0.0113
vn -0.0408 0.7358 0.6760
vn -0.0350 0.7339 -0.6783
vn -0.0476 0.9988 -0.0111
vn 0.0000 0.9242 -0.3818
vn 0.0432 0.9288 -0.3680
vn 0.0608 0.9981 -0.0062
vn 0.0160 0.9997 -0.0194
vn 0.0281 0.9995 -0.0156
vn 0.0404 0.7358 -0.6760
vn -0.9985 -0.0549 0.0021
usemtl Default_OBJ.001
s off
f 9/1/1 10/2/1 11/3/1
f 11/3/1 12/4/1 9/1/1
f 37/5/1 11/3/1 10/2/1
f 49/6/1 47/7/1 50/8/1
f 50/8/1 51/9/1 49/6/1
f 51/9/1 39/10/1 49/6/1
f 62/11/1 61/12/1 60/13/1
f 60/13/1 63/14/1 62/11/1
f 7/15/1 44/16/1 64/17/1
f 64/17/1 8/18/1 7/15/1
f 63/14/1 11/3/1 37/5/1
f 37/5/1 62/11/1 63/14/1
f 44/16/1 39/10/1 51/9/1
f 51/9/1 64/17/1 44/16/1
s 1
f 1/19/2 2/20/3 3/21/4
f 3/21/4 4/22/2 1/19/2
f 3/21/4 2/20/3 5/23/5
f 5/23/5 6/24/6 3/21/4
f 6/24/6 5/23/5 7/15/7
f 7/15/7 8/18/8 6/24/6
f 13/25/9 1/26/9 4/27/1
f 4/27/1 14/28/1 13/25/9
f 15/29/10 16/30/11 13/31/12
f 13/31/12 14/32/12 15/29/10
f 17/33/13 18/34/2 19/35/14
f 20/36/15 18/37/15 17/38/15
f 17/38/15 21/39/15 20/36/15
f 21/40/16 22/41/17 20/42/12
f 21/39/15 17/38/15 23/43/9
f 23/43/9 24/44/9 21/39/15
f 25/45/18 26/46/19 27/47/20
f 28/48/21 29/49/22 30/50/23
f 31/51/2 32/52/24 19/35/14
f 19/35/14 18/34/2 31/51/2
f 33/53/1 31/54/1 18/37/15
f 18/37/15 20/36/15 33/53/1
f 34/55/25 33/56/12 20/42/12
f 20/42/12 22/41/17 34/55/25
f 35/57/26 34/55/25 22/41/17
f 22/41/17 36/58/27 35/57/26
f 9/1/28 35/57/26 36/58/27
f 36/58/27 10/2/29 9/1/28
f 1/19/2 23/59/30 2/20/3
f 24/44/9 23/43/9 1/26/9
f 1/26/9 13/25/9 24/44/9
f 16/30/11 24/60/31 13/31/12
f 30/50/23 38/61/32 39/10/33
f 29/49/22 40/62/34 38/61/32
f 38/61/32 30/50/23 29/49/22
f 7/15/35 41/63/35 42/64/35
f 43/65/36 37/5/37 10/2/29
f 7/15/38 42/64/39 44/16/40
f 32/52/24 45/66/6 46/67/41
f 46/67/41 19/35/14 32/52/24
f 45/66/6 47/7/42 48/68/43
f 48/68/43 46/67/41 45/66/6
f 47/7/42 49/6/44 48/68/43
f 30/50/23 39/10/33 44/16/40
f 23/59/30 52/69/45 5/23/5
f 5/23/5 2/20/3 23/59/30
f 52/69/45 53/70/46 7/15/7
f 7/15/7 5/23/5 52/69/45
f 7/15/7 53/70/46 41/63/47
f 29/49/22 28/48/21 54/71/48
f 29/49/22 54/71/48 40/62/34
f 19/35/14 46/67/41 55/72/49
f 55/72/49 17/33/13 19/35/14
f 46/67/41 48/68/43 54/71/48
f 54/71/48 55/72/49 46/67/41
f 48/68/43 49/6/44 54/71/48
f 54/71/48 49/6/44 40/62/34
f 49/6/44 38/61/32 40/62/34
f 38/61/32 49/6/44 39/10/33
f 17/33/13 55/72/49 52/69/45
f 52/69/45 23/59/30 17/33/13
f 55/72/49 54/71/48 53/70/46
f 53/70/46 52/69/45 55/72/49
f 53/70/46 42/64/39 41/63/47
f 54/71/48 28/48/21 42/64/39
f 42/64/39 53/70/46 54/71/48
f 28/48/21 30/50/23 44/16/40
f 44/16/40 42/64/39 28/48/21
f 21/40/16 56/73/50 36/58/27
f 36/58/27 22/41/17 21/40/16
f 56/73/50 57/74/51 10/2/29
f 10/2/29 36/58/27 56/73/50
f 10/2/29 57/74/51 43/65/36
f 15/29/10 58/75/52 59/76/53
f 59/76/53 16/30/11 15/29/10
f 58/75/52 60/13/28 61/12/54
f 61/12/54 59/76/53 58/75/52
f 57/74/51 27/47/20 62/11/55
f 62/11/55 37/5/56 57/74/51
f 16/30/11 59/76/53 65/77/57
f 65/77/57 24/60/31 16/30/11
f 59/76/53 61/12/54 27/47/20
f 27/47/20 65/77/57 59/76/53
f 27/47/20 61/12/54 25/45/18
f 61/12/54 26/46/19 25/45/18
f 61/12/54 62/11/55 26/46/19
f 26/46/19 62/11/55 27/47/20
f 24/60/31 65/77/57 56/73/50
f 56/73/50 21/40/16 24/60/31
f 65/77/57 27/47/20 57/74/51
f 57/74/51 56/73/50 65/77/57
f 43/65/58 57/74/58 37/5/58
